<svg width="80" height="46" viewBox="0 0 80 46" fill="none" xmlns="http://www.w3.org/2000/svg">
<rect width="80" height="46" rx="8" fill="white"/>
<path d="M33.7008 21.7031C33.56 22.7593 32.7151 22.7593 31.9406 22.7593H31.5181L31.8701 20.7174C31.8701 20.5766 32.011 20.5062 32.1518 20.5062H32.363C32.9263 20.5062 33.4192 20.5062 33.7008 20.7878C33.7008 21.0694 33.7008 21.3511 33.7008 21.7031ZM33.3488 18.8867H30.3211C30.1099 18.8867 29.9691 19.0275 29.8986 19.2388L28.7017 26.9839C28.7017 27.1248 28.7721 27.2656 28.9833 27.2656H30.3915C30.6028 27.2656 30.7436 27.1248 30.814 26.9135L31.166 24.8012C31.166 24.59 31.3773 24.4492 31.5885 24.4492H32.5742C34.5457 24.4492 35.6723 23.4634 36.0244 21.5623C36.1652 20.7174 36.0244 20.0837 35.6723 19.5908C35.109 19.1684 34.3345 18.8867 33.3488 18.8867Z" fill="#263577"/>
<path d="M40.319 24.5195C40.1782 25.3644 39.5445 25.9277 38.6996 25.9277C38.2771 25.9277 37.9251 25.7869 37.7138 25.5053C37.5026 25.2236 37.4322 24.8716 37.5026 24.5195C37.6434 23.6746 38.2771 23.1113 39.1221 23.1113C39.5445 23.1113 39.8966 23.2521 40.1078 23.5338C40.2486 23.745 40.3894 24.097 40.319 24.5195ZM42.2905 21.7031H40.8823C40.7415 21.7031 40.6711 21.7735 40.6007 21.9143L40.5303 22.3368L40.4599 22.196C40.1782 21.7735 39.4741 21.5623 38.77 21.5623C37.1506 21.5623 35.8128 22.7592 35.5311 24.4491C35.3903 25.294 35.6015 26.0685 36.0944 26.6318C36.5168 27.1247 37.1506 27.3359 37.9251 27.3359C39.1925 27.3359 39.8966 26.491 39.8966 26.491L39.8262 26.9135C39.8262 27.0543 39.8966 27.1951 40.1078 27.1951H41.3752C41.5864 27.1951 41.7272 27.0543 41.7977 26.8431L42.5722 21.9143C42.5722 21.8439 42.5018 21.7031 42.2905 21.7031Z" fill="#263577"/>
<path d="M49.9656 21.7031H48.4869C48.3461 21.7031 48.2053 21.7735 48.1349 21.9144L46.1634 24.8716L45.3184 22.0552C45.248 21.8439 45.1072 21.7735 44.896 21.7735H43.4878C43.3469 21.7735 43.2061 21.9144 43.2765 22.1256L44.896 26.7727L43.4173 28.885C43.2765 29.0258 43.4174 29.3075 43.6286 29.3075H45.1072C45.248 29.3075 45.3889 29.2371 45.4593 29.0962L50.2472 22.1256C50.3176 21.9144 50.1768 21.7031 49.9656 21.7031Z" fill="#263577"/>
<path d="M55.1054 21.7031C54.9645 22.7593 54.1196 22.7593 53.3451 22.7593H52.9226L53.2747 20.7174C53.2747 20.5766 53.4155 20.5062 53.5563 20.5062H53.7676C54.3308 20.5062 54.8237 20.5062 55.1054 20.7878C55.1758 21.0694 55.1758 21.3511 55.1054 21.7031ZM54.7533 18.8867H51.7257C51.5144 18.8867 51.3736 19.0275 51.3032 19.2388L50.1062 26.9839C50.1062 27.1248 50.1766 27.2656 50.3879 27.2656H51.9369C52.0777 27.2656 52.2185 27.1952 52.2185 26.9839L52.5706 24.8012C52.5706 24.59 52.7818 24.4492 52.993 24.4492H53.9788C55.9503 24.4492 57.0769 23.4634 57.4289 21.5623C57.5697 20.7174 57.4289 20.0837 57.0769 19.5908C56.584 19.1684 55.8095 18.8867 54.7533 18.8867Z" fill="#2199D6"/>
<path d="M61.7946 24.5195C61.6538 25.3644 61.0201 25.9277 60.1752 25.9277C59.7527 25.9277 59.4007 25.7869 59.1894 25.5053C58.9782 25.2236 58.9078 24.8716 58.9782 24.5195C59.119 23.6746 59.7527 23.1113 60.5976 23.1113C61.0201 23.1113 61.3722 23.2521 61.5834 23.5338C61.7242 23.745 61.865 24.097 61.7946 24.5195ZM63.7661 21.7031H62.3579C62.2171 21.7031 62.1467 21.7735 62.0762 21.9143L62.0059 22.3368L61.9354 22.196C61.6538 21.7735 60.9497 21.5623 60.2456 21.5623C58.6261 21.5623 57.2883 22.7592 57.0067 24.4491C56.8659 25.294 57.0771 26.0685 57.57 26.6318C57.9924 27.1247 58.6261 27.3359 59.4007 27.3359C60.668 27.3359 61.3721 26.491 61.3721 26.491L61.3017 26.9135C61.3017 27.0543 61.3722 27.1951 61.5834 27.1951H62.8508C63.062 27.1951 63.2028 27.0543 63.2732 26.8431L64.0478 21.9143C64.0478 21.8439 63.9069 21.7031 63.7661 21.7031Z" fill="#2199D6"/>
<path d="M65.4559 19.098L64.1885 26.9839C64.1885 27.1248 64.2589 27.2656 64.4701 27.2656H65.7375C65.9488 27.2656 66.0896 27.1248 66.16 26.9135L67.357 19.1684C67.357 19.0275 67.2865 18.8867 67.0753 18.8867H65.6671C65.5967 18.8867 65.5263 19.0275 65.4559 19.098Z" fill="#2199D6"/>
<path d="M16.1681 28.7442L16.3794 27.2656H15.8865H13.4221L15.112 16.4928C15.112 16.4928 15.112 16.4224 15.1824 16.4224H15.2528H19.407C20.7448 16.4224 21.7306 16.704 22.2235 17.2673C22.4347 17.5489 22.5755 17.8306 22.6459 18.1122C22.7163 18.4643 22.7163 18.8163 22.6459 19.3092V19.5908L22.8572 19.7317C23.0684 19.8021 23.2092 19.9429 23.35 20.0837C23.5613 20.2949 23.7021 20.5766 23.7021 20.9286C23.7725 21.2807 23.7725 21.7032 23.6317 22.196C23.4908 22.7593 23.35 23.1818 23.1388 23.6042C22.9276 23.9563 22.6459 24.2379 22.3643 24.5196C22.0826 24.7308 21.6602 24.8716 21.3081 25.0125C20.8856 25.0829 20.4632 25.1533 19.9703 25.1533H19.6183C19.407 25.1533 19.1958 25.2237 18.9846 25.3645C18.8437 25.5053 18.7029 25.7166 18.6325 25.9278V26.0686L18.21 28.6738V28.7442V28.8146C18.21 28.8146 18.21 28.8146 18.1396 28.8146H16.1681V28.7442Z" fill="#263577"/>
<path d="M23.139 19.3091C23.139 19.3795 23.139 19.4499 23.0686 19.5203C22.5053 22.3367 20.6746 23.2521 18.2806 23.2521H17.0836C16.802 23.2521 16.5204 23.4633 16.5204 23.745L15.8867 27.688L15.7458 28.8145C15.7458 29.0258 15.8867 29.1666 16.0275 29.1666H18.2102C18.4919 29.1666 18.7031 28.9553 18.7031 28.7441V28.6033L19.1256 26.0685V25.9277C19.196 25.646 19.4072 25.5052 19.6184 25.5052H19.9705C22.0828 25.5052 23.7022 24.6603 24.1247 22.1959C24.3359 21.1398 24.1951 20.2948 23.7023 19.7315C23.5614 19.5907 23.3502 19.4499 23.139 19.3091Z" fill="#2199D6"/>
<path d="M22.5756 19.098C22.5052 19.098 22.4348 19.0275 22.2939 19.0275C22.2235 19.0275 22.0827 18.9571 22.0123 18.9571C21.6602 18.8867 21.3082 18.8867 20.9561 18.8867H17.7172C17.6468 18.8867 17.5764 18.8867 17.506 18.9571C17.3652 19.0275 17.2244 19.1684 17.2244 19.3092L16.5203 23.6746V23.8155C16.5907 23.5338 16.8019 23.3226 17.0835 23.3226H18.2805C20.6745 23.3226 22.5052 22.3368 23.0684 19.5908C23.0684 19.5204 23.0684 19.45 23.1389 19.3796C22.998 19.3092 22.8572 19.2388 22.7164 19.1684C22.646 19.098 22.5756 19.098 22.5756 19.098Z" fill="#252C5E"/>
<path d="M17.2246 19.3093C17.2246 19.1685 17.3655 19.0277 17.5063 18.9572C17.5767 18.9572 17.6471 18.8868 17.7175 18.8868H20.9564C21.3084 18.8868 21.7309 18.8868 22.0126 18.9572C22.083 18.9572 22.2238 18.9572 22.2942 19.0277C22.3646 19.0277 22.435 19.0981 22.5758 19.0981C22.6463 19.0981 22.6463 19.0981 22.7167 19.1685C22.8575 19.2389 22.9983 19.3093 23.1391 19.3797C23.28 18.3236 23.1391 17.6194 22.5758 16.9857C21.9421 16.2816 20.8156 16 19.4074 16H15.2531C14.9715 16 14.6899 16.2112 14.6899 16.4929L13 27.3361C13 27.5473 13.1408 27.7586 13.3521 27.7586H15.8868L16.5205 23.6748L17.2246 19.3093Z" fill="#263577"/>
</svg>
