<svg width="80" height="46" viewBox="0 0 80 46" fill="none" xmlns="http://www.w3.org/2000/svg">
<rect width="80" height="46" rx="8" fill="white"/>
<path d="M57.7204 17.1775H55.1781C54.4095 17.1775 53.8183 17.414 53.4636 18.1826L48.6155 29.2386H52.0446C52.0446 29.2386 52.6358 27.7605 52.7541 27.4058C53.1088 27.4058 56.4788 27.4058 56.9518 27.4058C57.0701 27.8196 57.3657 29.1795 57.3657 29.1795H60.4401L57.7204 17.1775ZM53.7001 24.9226C53.9957 24.2131 55.0008 21.5526 55.0008 21.5526C55.0008 21.6117 55.2964 20.8431 55.4146 20.4293L55.6511 21.4935C55.6511 21.4935 56.3015 24.3905 56.4197 24.9817H53.7001V24.9226Z" fill="#3362AB"/>
<path d="M48.852 25.2772C48.852 27.7604 46.6053 29.4158 43.117 29.4158C41.639 29.4158 40.22 29.1202 39.4514 28.7655L39.9244 26.0458L40.3383 26.2232C41.4025 26.6962 42.112 26.8736 43.4127 26.8736C44.3586 26.8736 45.3637 26.5188 45.3637 25.6911C45.3637 25.159 44.9499 24.8042 43.6492 24.213C42.4076 23.6218 40.7521 22.6758 40.7521 20.9612C40.7521 18.5963 43.0579 17 46.3097 17C47.5513 17 48.6155 17.2365 49.2658 17.5321L48.7929 20.1335L48.5564 19.897C47.9651 19.6605 47.1965 19.424 46.0732 19.424C44.8316 19.4832 44.2404 20.0153 44.2404 20.4883C44.2404 21.0204 44.9499 21.4342 46.0732 21.9663C47.9651 22.8532 48.852 23.8583 48.852 25.2772Z" fill="#3362AB"/>
<path d="M20 17.2956L20.0591 17.0591H25.1437C25.8532 17.0591 26.3853 17.2956 26.5627 18.0642L27.686 23.3853C26.5627 20.5473 23.9612 18.2415 20 17.2956Z" fill="#F9B50B"/>
<path d="M34.8401 17.1773L29.6964 29.1793H26.2081L23.252 19.1283C25.3804 20.4882 27.1541 22.6166 27.8044 24.0947L28.1592 25.3363L31.3518 17.1182H34.8401V17.1773Z" fill="#3362AB"/>
<path d="M36.1997 17.1182H39.4514L37.3821 29.1793H34.1304L36.1997 17.1182Z" fill="#3362AB"/>
</svg>
