<svg width="22" height="33" viewBox="0 0 22 33" fill="none" xmlns="http://www.w3.org/2000/svg">
<path d="M18.9332 0.737549H3.02907C1.7262 0.737549 0.67041 1.7933 0.67041 3.09618V30.0073C0.67041 31.3102 1.7262 32.366 3.02907 32.366H18.9332C20.236 32.366 21.2918 31.3102 21.2918 30.0073V3.09618C21.2918 1.81576 20.2136 0.737549 18.9332 0.737549Z" fill="white"/>
<path d="M20.1461 4.534H1.79346V26.7278H20.1461V4.534Z" fill="#404040"/>
<path d="M14.7323 2.15247H7.20709C6.91507 2.15247 6.64551 2.39956 6.64551 2.71405C6.64551 3.02854 6.89261 3.27564 7.20709 3.27564H14.7323C15.0244 3.27564 15.2939 3.02854 15.2939 2.71405C15.2939 2.42203 15.0468 2.15247 14.7323 2.15247Z" fill="#6639A6"/>
<path d="M9.18457 29.4009C9.18457 28.4125 9.99326 27.5814 10.9816 27.5814C11.97 27.5814 12.8012 28.39 12.8012 29.4009C12.8012 30.3893 11.9925 31.1979 10.9816 31.1979C9.99326 31.2204 9.18457 30.4117 9.18457 29.4009Z" fill="#6639A6"/>
</svg>
