<svg width="282" height="441" viewBox="0 0 282 441" fill="none" xmlns="http://www.w3.org/2000/svg">
<rect width="282" height="441" rx="20" fill="#E4E4E4"/>
<path d="M161.55 178.114C164.365 177.762 167.178 179.872 167.178 182.687L176.324 269.571C176.676 272.385 174.565 275.199 171.751 275.199L85.2183 284.345C82.404 284.697 79.5902 282.586 79.5902 279.772L70.4446 193.239C70.0928 190.425 72.2034 187.611 75.0176 187.611L161.55 178.114Z" stroke="black" stroke-width="0.5" stroke-linecap="round" stroke-linejoin="round"/>
<path d="M101.048 202.033C94.716 202.737 89.7916 208.365 90.4949 215.048C91.1985 221.38 96.8266 226.305 103.51 225.601C109.842 224.898 114.766 219.27 114.063 212.586C113.36 205.903 107.379 201.33 101.048 202.033ZM133.058 222.435L116.173 243.189C115.47 243.893 114.414 244.244 113.711 243.541L109.841 240.375C109.138 239.672 107.731 240.024 107.379 240.727L89.0876 263.24C88.3839 263.943 88.3839 265.35 89.4394 265.702C89.0876 266.054 89.7912 266.054 90.143 266.054L162.957 258.315C164.012 258.315 164.716 257.26 164.716 256.205C164.716 255.853 164.364 255.501 164.364 255.15L135.872 222.084C134.817 221.732 133.761 221.732 133.058 222.435Z" stroke="black" stroke-width="0.5" stroke-linecap="round" stroke-linejoin="round"/>
<path d="M113.359 183.389L115.822 161.229C116.174 158.414 118.636 156.304 121.45 156.656L207.983 165.801C210.797 166.153 212.907 168.615 212.556 171.429L203.41 257.962C203.41 260.424 200.596 262.535 197.782 262.535L175.269 260.073" stroke="black" stroke-width="0.5" stroke-linecap="round" stroke-linejoin="round"/>
<path d="M173.51 242.134L192.857 244.244C193.912 244.244 194.615 243.541 194.967 242.485C194.967 242.134 194.967 241.782 194.615 241.43L173.51 203.089C173.158 202.385 171.751 202.033 171.047 202.385L169.64 203.792" stroke="black" stroke-width="0.5" stroke-linecap="round" stroke-linejoin="round"/>
</svg>
